#!OML:ASF I:\Actors\actors\Patient Classification 1\Patient 1\Session 1\Subject1.ASF
:FULLY-SPECIFIED
:DEGREES
1211
root 0.559023 17.5069 9.53108 10.6493 -8.14039 -9.84873
lowerback -0.511267 2.30627 6.72125
upperback -7.25456 3.40502 1.38026
thorax -7.02268 1.31992 -2.48116
lowerneck -12.9849 -2.66458 -0.609767
upperneck 30.4999 -5.32329 4.82955
head 12.3902 -1.84842 1.16988
rclavicle 1.04362e-015 -3.06128e-014
rhumerus 29.4151 45.2811 -35.9165
rradius 110.471
rwrist 36.3519
rhand 6.31369 -14.5313
rfingers 7.12502
rthumb 31.6222 -41.8123
lclavicle 1.04362e-015 -3.06128e-014
lhumerus -41.1349 -23.5415 98.5078
lradius 125.879
lwrist 13.7749
lhand -10.2411 -5.91435
lfingers 7.12502
lthumb 15.7514 23.4647
rfemur -4.40517 22.9586 25.5662
rtibia 2.48038
rfoot -12.7199 -19.3143
rtoes 0.280026
lfemur 14.1786 -54.0523 -19.7898
ltibia -4.44363
lfoot -60.4926 58.8055
ltoes 31.123
1212
root 0.560491 17.509 9.52284 10.6756 -8.15088 -9.86195
lowerback -0.371712 2.32856 6.74741
upperback -7.21677 3.44444 1.34163
thorax -7.0555 1.33604 -2.5436
lowerneck -13.0254 -2.66737 -0.635596
upperneck 30.3346 -5.36672 5.01088
head 12.3408 -1.85 1.2349
rclavicle -1.97791e-014 4.49253e-014
rhumerus 29.8681 45.5156 -35.016
rradius 110.417
rwrist 35.5428
rhand 7.75027 -15.1301
rfingers 7.12502
rthumb 32.9896 -42.1326
lclavicle -1.97791e-014 4.49253e-014
lhumerus -41.0457 -23.6266 98.4126
lradius 125.891
lwrist 13.873
lhand -10.3022 -5.97259
lfingers 7.12502
lthumb 15.6926 23.4111
rfemur -4.47974 22.9377 25.558
rtibia 2.49483
rfoot -12.6314 -19.3096
rtoes 0.0213666
lfemur 13.9599 -53.8837 -19.5646
ltibia -4.46202
lfoot -60.0725 58.8395
ltoes 30.8941
1213
root 0.56094 17.5104 9.51352 10.7283 -8.16122 -9.90968
lowerback -0.247757 2.36058 6.7792
upperback -7.17405 3.4957 1.30649
thorax -7.07273 1.35848 -2.60534
lowerneck -13.1972 -2.7056 -0.690904
upperneck 30.2785 -5.46231 5.18844
head 12.3664 -1.87379 1.29528
rclavicle -6.90777e-015 -1.19271e-015
rhumerus 30.2234 45.6995 -34.2408
rradius 110.479
rwrist 34.8383
rhand 9.26505 -15.7856
rfingers 7.12502
rthumb 34.4289 -42.4731
lclavicle -6.90777e-015 -1.19271e-015
lhumerus -40.9203 -23.7449 98.3087
lradius 125.903
lwrist 13.8785
lhand -10.3563 -6.07658
lfingers 7.12502
lthumb 15.6405 23.3112
rfemur -4.60512 22.9096 25.5746
rtibia 2.53972
rfoot -12.5371 -19.2958
rtoes -0.320964
lfemur 13.6906 -53.7297 -19.2479
ltibia -4.48788
lfoot -59.724 58.8241
ltoes 30.8293
1214
root 0.562348 17.5108 9.50523 10.7865 -8.19208 -9.99211
lowerback -0.10034 2.40503 6.86137
upperback -7.15383 3.56894 1.27068
thorax -7.12373 1.38694 -2.69847
lowerneck -13.3606 -2.75714 -0.780171
upperneck 30.244 -5.57642 5.3872
head 12.4019 -1.90661 1.3672
rclavicle -2.68359e-014 -1.98785e-015
rhumerus 30.3277 45.8137 -33.7195
rradius 110.674
rwrist 34.4334
rhand 10.7311 -16.2108
rfingers 7.12502
rthumb 35.8195 -42.5715
lclavicle -2.68359e-014 -1.98785e-015
lhumerus -40.7931 -23.8531 98.21
lradius 125.917
lwrist 13.7923
lhand -10.323 -5.95072
lfingers 7.12502
lthumb 15.6726 23.4345
rfemur -4.71853 22.8962 25.6276
rtibia 2.57621
rfoot -12.478 -19.2562
rtoes -0.512331
lfemur 13.5149 -53.6618 -18.9955
ltibia -4.49772
lfoot -59.6975 58.7522
ltoes 30.9187
1215
root 0.56434 17.511 9.4991 10.8136 -8.20785 -10.0968
lowerback 0.0771778 2.44594 6.96959
upperback -7.13058 3.64208 1.24685
thorax -7.18839 1.41362 -2.79513
lowerneck -13.4292 -2.81639 -0.8521
upperneck 30.1132 -5.6932 5.5718
head 12.3777 -1.94456 1.43032
rclavicle 2.22639e-014 8.74653e-015
rhumerus 30.2629 45.8778 -33.3705
rradius 110.918
rwrist 34.1274
rhand 12.0729 -16.5137
rfingers 7.12502
rthumb 37.0897 -42.5549
lclavicle 2.22639e-014 8.74653e-015
lhumerus -40.6065 -23.9275 98.1065
lradius 125.907
lwrist 13.7542
lhand -10.1757 -5.8112
lfingers 7.12502
lthumb 15.8145 23.5629
rfemur -4.75002 22.8888 25.7374
rtibia 2.57805
rfoot -12.4262 -19.245
rtoes -0.715964
lfemur 13.5299 -53.7002 -18.8883
ltibia -4.52082
lfoot -59.9973 58.6191
ltoes 31.2178
1216
root 0.567283 17.5122 9.49297 10.8178 -8.18333 -10.1177
lowerback 0.217236 2.47782 6.99207
upperback -7.08348 3.69379 1.20123
thorax -7.20944 1.43641 -2.86402
lowerneck -13.3921 -2.8748 -0.886142
upperneck 29.8722 -5.81185 5.76747
head 12.2866 -1.9825 1.49064
rclavicle -4.29375e-014 -4.77083e-014
rhumerus 30.0197 45.8676 -33.2006
rradius 111.169
rwrist 33.4334
rhand 13.3143 -16.9288
rfingers 7.12502
rthumb 38.2626 -42.6561
lclavicle -4.29375e-014 -4.77083e-014
lhumerus -40.3774 -24.0008 97.9857
lradius 125.896
lwrist 13.7665
lhand -10.0293 -5.84809
lfingers 7.12502
lthumb 15.9555 23.5147
rfemur -4.75836 22.8921 25.756
rtibia 2.56088
rfoot -12.3964 -19.2804
rtoes -0.739221
lfemur 13.574 -53.8127 -18.9123
ltibia -4.53212
lfoot -60.2735 58.5694
ltoes 31.4273
